STARTFONT 2.1
FONT WH:/gn/phr/ast-xfonts/supsup.ast
SIZE 13 75 75
FONTBOUNDINGBOX 13 36 0 0
STARTPROPERTIES 3
FONT_DESCENT -22
FONT_ASCENT 36
COPYRIGHT "Public domain font.  Share and enjoy."
ENDPROPERTIES
CHARS 109
STARTCHAR C022
ENCODING 18
SWIDTH 692 0
DWIDTH 9 0
BBX 9 14 0 22
BITMAP
7c00
c600
8200
8200
8200
8200
6000
1800
6000
1800
6000
1800
6000
1800
ENDCHAR
STARTCHAR C023
ENCODING 19
SWIDTH 692 0
DWIDTH 9 0
BBX 9 14 0 22
BITMAP
82
82
82
82
82
82
82
82
82
c6
7c
00
00
00
ENDCHAR
STARTCHAR C024
ENCODING 20
SWIDTH 692 0
DWIDTH 9 0
BBX 9 14 0 22
BITMAP
00
82
82
fe
c6
44
6c
28
28
38
10
00
00
00
ENDCHAR
STARTCHAR C025
ENCODING 21
SWIDTH 615 0
DWIDTH 8 0
BBX 8 14 0 22
BITMAP
00
fc
04
04
04
1c
04
04
04
04
fc
00
00
00
ENDCHAR
STARTCHAR C026
ENCODING 22
SWIDTH 846 0
DWIDTH 11 0
BBX 11 14 0 22
BITMAP
0000
0000
3e00
6300
f780
9c80
8880
9c80
f780
6300
3e00
0000
0000
0000
ENDCHAR
STARTCHAR C027
ENCODING 23
SWIDTH 692 0
DWIDTH 9 0
BBX 9 14 0 22
BITMAP
00
00
00
00
24
42
ff
42
24
00
00
00
00
00
ENDCHAR
STARTCHAR C030
ENCODING 24
SWIDTH 461 0
DWIDTH 6 0
BBX 6 14 0 22
BITMAP
00
00
00
00
00
00
00
00
00
00
00
fc
00
00
ENDCHAR
STARTCHAR C031
ENCODING 25
SWIDTH 692 0
DWIDTH 9 0
BBX 9 14 0 22
BITMAP
00
00
00
00
00
04
02
ff
02
04
00
00
00
00
ENDCHAR
STARTCHAR C032
ENCODING 26
SWIDTH 538 0
DWIDTH 7 0
BBX 7 14 0 22
BITMAP
00
00
00
00
00
00
90
b0
68
48
00
00
00
00
ENDCHAR
STARTCHAR C033
ENCODING 27
SWIDTH 692 0
DWIDTH 9 0
BBX 9 14 0 22
BITMAP
00
00
04
08
fc
10
20
fc
40
80
00
00
00
00
ENDCHAR
STARTCHAR C034
ENCODING 28
SWIDTH 461 0
DWIDTH 6 0
BBX 6 14 0 22
BITMAP
08
10
20
40
80
40
20
10
08
00
f8
00
00
00
ENDCHAR
STARTCHAR C035
ENCODING 29
SWIDTH 461 0
DWIDTH 6 0
BBX 6 14 0 22
BITMAP
80
40
20
10
08
10
20
40
80
00
f8
00
00
00
ENDCHAR
STARTCHAR C036
ENCODING 30
SWIDTH 461 0
DWIDTH 6 0
BBX 6 14 0 22
BITMAP
00
00
00
00
00
f8
00
f8
00
f8
00
00
00
00
ENDCHAR
STARTCHAR C037
ENCODING 31
SWIDTH 615 0
DWIDTH 8 0
BBX 8 14 0 22
BITMAP
00
00
00
82
82
c6
44
6c
28
38
10
00
00
00
ENDCHAR
STARTCHAR C040
ENCODING 32
SWIDTH 384 0
DWIDTH 5 0
BBX 5 14 0 22
BITMAP
00
00
00
00
00
00
00
00
00
00
00
00
00
00
ENDCHAR
STARTCHAR !
ENCODING 33
SWIDTH 230 0
DWIDTH 3 0
BBX 3 14 0 22
BITMAP
00
80
80
80
80
80
80
80
00
80
80
00
00
00
ENDCHAR
STARTCHAR "
ENCODING 34
SWIDTH 538 0
DWIDTH 7 0
BBX 7 14 0 22
BITMAP
d8
48
48
00
00
00
00
00
00
00
00
00
00
00
ENDCHAR
STARTCHAR #
ENCODING 35
SWIDTH 538 0
DWIDTH 7 0
BBX 7 14 0 22
BITMAP
00
00
00
48
48
fc
48
48
fc
48
48
00
00
00
ENDCHAR
STARTCHAR $
ENCODING 36
SWIDTH 692 0
DWIDTH 9 0
BBX 9 14 0 22
BITMAP
10
7c
d6
90
d0
7c
16
12
d6
7c
10
00
00
00
ENDCHAR
STARTCHAR %
ENCODING 37
SWIDTH 692 0
DWIDTH 9 0
BBX 9 14 0 22
BITMAP
60
90
92
64
08
10
20
4c
92
12
0c
00
00
00
ENDCHAR
STARTCHAR &
ENCODING 38
SWIDTH 769 0
DWIDTH 10 0
BBX 10 14 0 22
BITMAP
00
38
6c
6c
38
77
5a
9a
8a
cc
7f
30
00
00
ENDCHAR
STARTCHAR '
ENCODING 39
SWIDTH 307 0
DWIDTH 4 0
BBX 4 14 0 22
BITMAP
c0
40
40
00
00
00
00
00
00
00
00
00
00
00
ENDCHAR
STARTCHAR (
ENCODING 40
SWIDTH 384 0
DWIDTH 5 0
BBX 5 14 0 22
BITMAP
20
60
40
c0
80
80
80
80
80
c0
40
60
20
00
ENDCHAR
STARTCHAR )
ENCODING 41
SWIDTH 384 0
DWIDTH 5 0
BBX 5 14 0 22
BITMAP
80
c0
40
60
20
20
20
20
20
60
40
c0
80
00
ENDCHAR
STARTCHAR *
ENCODING 42
SWIDTH 692 0
DWIDTH 9 0
BBX 9 14 0 22
BITMAP
00
00
00
00
92
54
38
fe
38
54
92
00
00
00
ENDCHAR
STARTCHAR +
ENCODING 43
SWIDTH 461 0
DWIDTH 6 0
BBX 6 14 0 22
BITMAP
00
00
00
00
00
20
20
f8
20
20
00
00
00
00
ENDCHAR
STARTCHAR ,
ENCODING 44
SWIDTH 230 0
DWIDTH 3 0
BBX 3 14 0 22
BITMAP
00
00
00
00
00
00
00
00
00
40
40
40
80
00
ENDCHAR
STARTCHAR -
ENCODING 45
SWIDTH 461 0
DWIDTH 6 0
BBX 6 14 0 22
BITMAP
00
00
00
00
00
00
00
f8
00
00
00
00
00
00
ENDCHAR
STARTCHAR .
ENCODING 46
SWIDTH 230 0
DWIDTH 3 0
BBX 3 14 0 22
BITMAP
00
00
00
00
00
00
00
00
00
c0
c0
00
00
00
ENDCHAR
STARTCHAR /
ENCODING 47
SWIDTH 615 0
DWIDTH 8 0
BBX 8 14 0 22
BITMAP
04
04
08
08
10
10
20
20
40
40
80
80
00
00
ENDCHAR
STARTCHAR 0
ENCODING 48
SWIDTH 692 0
DWIDTH 9 0
BBX 9 14 0 22
BITMAP
00
38
6c
c6
82
82
82
82
c6
6c
38
00
00
00
ENDCHAR
STARTCHAR 1
ENCODING 49
SWIDTH 692 0
DWIDTH 9 0
BBX 9 14 0 22
BITMAP
00
40
c0
40
40
40
40
40
40
40
e0
00
00
00
ENDCHAR
STARTCHAR 2
ENCODING 50
SWIDTH 692 0
DWIDTH 9 0
BBX 9 14 0 22
BITMAP
00
7c
c6
86
06
0c
18
30
60
c0
fe
00
00
00
ENDCHAR
STARTCHAR 3
ENCODING 51
SWIDTH 692 0
DWIDTH 9 0
BBX 9 14 0 22
BITMAP
00
7c
ce
86
06
3c
04
06
86
ce
7c
00
00
00
ENDCHAR
STARTCHAR 4
ENCODING 52
SWIDTH 692 0
DWIDTH 9 0
BBX 9 14 0 22
BITMAP
00
1c
34
24
64
44
c4
84
fe
04
04
00
00
00
ENDCHAR
STARTCHAR 5
ENCODING 53
SWIDTH 692 0
DWIDTH 9 0
BBX 9 14 0 22
BITMAP
00
fc
80
80
b8
cc
84
04
04
cc
78
00
00
00
ENDCHAR
STARTCHAR 6
ENCODING 54
SWIDTH 692 0
DWIDTH 9 0
BBX 9 14 0 22
BITMAP
00
3c
66
c0
80
bc
c6
82
82
c6
7c
00
00
00
ENDCHAR
STARTCHAR 7
ENCODING 55
SWIDTH 692 0
DWIDTH 9 0
BBX 9 14 0 22
BITMAP
00
fe
02
06
04
0c
08
18
10
30
20
00
00
00
ENDCHAR
STARTCHAR 8
ENCODING 56
SWIDTH 692 0
DWIDTH 9 0
BBX 9 14 0 22
BITMAP
00
7c
c6
c6
6c
38
7c
c6
82
c6
7c
00
00
00
ENDCHAR
STARTCHAR 9
ENCODING 57
SWIDTH 692 0
DWIDTH 9 0
BBX 9 14 0 22
BITMAP
00
7c
c6
82
82
c6
7e
02
06
cc
78
00
00
00
ENDCHAR
STARTCHAR :
ENCODING 58
SWIDTH 230 0
DWIDTH 3 0
BBX 3 14 0 22
BITMAP
00
00
00
00
c0
c0
00
00
c0
c0
00
00
00
00
ENDCHAR
STARTCHAR ;
ENCODING 59
SWIDTH 307 0
DWIDTH 4 0
BBX 4 14 0 22
BITMAP
00
00
00
00
60
60
00
00
60
60
40
80
00
00
ENDCHAR
STARTCHAR <
ENCODING 60
SWIDTH 461 0
DWIDTH 6 0
BBX 6 14 0 22
BITMAP
00
08
10
20
40
80
40
20
10
08
00
00
00
00
ENDCHAR
STARTCHAR =
ENCODING 61
SWIDTH 461 0
DWIDTH 6 0
BBX 6 14 0 22
BITMAP
00
00
00
00
00
00
f8
00
f8
00
00
00
00
00
ENDCHAR
STARTCHAR >
ENCODING 62
SWIDTH 461 0
DWIDTH 6 0
BBX 6 14 0 22
BITMAP
00
80
40
20
10
08
10
20
40
80
00
00
00
00
ENDCHAR
STARTCHAR ?
ENCODING 63
SWIDTH 538 0
DWIDTH 7 0
BBX 7 14 0 22
BITMAP
00
78
cc
84
0c
18
30
20
00
20
20
00
00
00
ENDCHAR
STARTCHAR @
ENCODING 64
SWIDTH 692 0
DWIDTH 9 0
BBX 9 14 0 22
BITMAP
00
00
7e
c3
99
bd
a5
a7
be
c0
7f
00
00
00
ENDCHAR
STARTCHAR A
ENCODING 65
SWIDTH 769 0
DWIDTH 10 0
BBX 10 14 0 22
BITMAP
00
18
3c
24
66
42
7e
42
c3
81
81
00
00
00
ENDCHAR
STARTCHAR B
ENCODING 66
SWIDTH 692 0
DWIDTH 9 0
BBX 9 14 0 22
BITMAP
00
fc
86
82
86
fc
86
82
82
86
fc
00
00
00
ENDCHAR
STARTCHAR C
ENCODING 67
SWIDTH 692 0
DWIDTH 9 0
BBX 9 14 0 22
BITMAP
00
3c
66
c2
80
80
80
80
c2
66
3c
00
00
00
ENDCHAR
STARTCHAR D
ENCODING 68
SWIDTH 692 0
DWIDTH 9 0
BBX 9 14 0 22
BITMAP
00
f8
8c
86
82
82
82
82
86
8c
f8
00
00
00
ENDCHAR
STARTCHAR E
ENCODING 69
SWIDTH 615 0
DWIDTH 8 0
BBX 8 14 0 22
BITMAP
00
fc
80
80
80
f8
80
80
80
80
fc
00
00
00
ENDCHAR
STARTCHAR F
ENCODING 70
SWIDTH 615 0
DWIDTH 8 0
BBX 8 14 0 22
BITMAP
00
fc
80
80
80
f8
80
80
80
80
80
00
00
00
ENDCHAR
STARTCHAR G
ENCODING 71
SWIDTH 769 0
DWIDTH 10 0
BBX 10 14 0 22
BITMAP
00
3e
63
c1
80
80
8f
81
c1
63
3e
00
00
00
ENDCHAR
STARTCHAR H
ENCODING 72
SWIDTH 692 0
DWIDTH 9 0
BBX 9 14 0 22
BITMAP
00
82
82
82
82
fe
82
82
82
82
82
00
00
00
ENDCHAR
STARTCHAR I
ENCODING 73
SWIDTH 307 0
DWIDTH 4 0
BBX 4 14 0 22
BITMAP
00
80
80
80
80
80
80
80
80
80
80
00
00
00
ENDCHAR
STARTCHAR J
ENCODING 74
SWIDTH 538 0
DWIDTH 7 0
BBX 7 14 0 22
BITMAP
00
08
08
08
08
08
08
08
88
d8
70
00
00
00
ENDCHAR
STARTCHAR K
ENCODING 75
SWIDTH 615 0
DWIDTH 8 0
BBX 8 14 0 22
BITMAP
00
84
8c
98
b0
e0
e0
b0
98
8c
84
00
00
00
ENDCHAR
STARTCHAR L
ENCODING 76
SWIDTH 615 0
DWIDTH 8 0
BBX 8 14 0 22
BITMAP
00
80
80
80
80
80
80
80
80
80
f8
00
00
00
ENDCHAR
STARTCHAR M
ENCODING 77
SWIDTH 846 0
DWIDTH 11 0
BBX 11 14 0 22
BITMAP
0000
8080
c180
c180
e380
a280
b680
9480
9c80
8880
8880
0000
0000
0000
ENDCHAR
STARTCHAR N
ENCODING 78
SWIDTH 692 0
DWIDTH 9 0
BBX 9 14 0 22
BITMAP
00
c2
c2
e2
a2
b2
92
9a
8a
8e
86
00
00
00
ENDCHAR
STARTCHAR O
ENCODING 79
SWIDTH 692 0
DWIDTH 9 0
BBX 9 14 0 22
BITMAP
00
38
6c
c6
82
82
82
82
c6
6c
38
00
00
00
ENDCHAR
STARTCHAR P
ENCODING 80
SWIDTH 615 0
DWIDTH 8 0
BBX 8 14 0 22
BITMAP
00
f8
8c
84
84
8c
f8
80
80
80
80
00
00
00
ENDCHAR
STARTCHAR Q
ENCODING 81
SWIDTH 692 0
DWIDTH 9 0
BBX 9 14 0 22
BITMAP
00
38
6c
c6
82
82
82
82
c6
6c
3c
06
03
00
ENDCHAR
STARTCHAR R
ENCODING 82
SWIDTH 615 0
DWIDTH 8 0
BBX 8 14 0 22
BITMAP
00
f8
8c
84
84
8c
f8
b0
98
8c
84
00
00
00
ENDCHAR
STARTCHAR S
ENCODING 83
SWIDTH 692 0
DWIDTH 9 0
BBX 9 14 0 22
BITMAP
00
7c
c6
82
c0
78
0c
06
82
c6
7c
00
00
00
ENDCHAR
STARTCHAR T
ENCODING 84
SWIDTH 692 0
DWIDTH 9 0
BBX 9 14 0 22
BITMAP
00
fe
10
10
10
10
10
10
10
10
10
00
00
00
ENDCHAR
STARTCHAR U
ENCODING 85
SWIDTH 692 0
DWIDTH 9 0
BBX 9 14 0 22
BITMAP
00
82
82
82
82
82
82
82
82
c6
7c
00
00
00
ENDCHAR
STARTCHAR V
ENCODING 86
SWIDTH 692 0
DWIDTH 9 0
BBX 9 14 0 22
BITMAP
00
82
82
c6
44
44
6c
28
38
38
10
00
00
00
ENDCHAR
STARTCHAR W
ENCODING 87
SWIDTH 1000 0
DWIDTH 13 0
BBX 13 14 0 22
BITMAP
0000
8020
8420
c460
4440
4e40
6ec0
2a80
2a80
3b80
1100
0000
0000
0000
ENDCHAR
STARTCHAR X
ENCODING 88
SWIDTH 846 0
DWIDTH 11 0
BBX 11 14 0 22
BITMAP
0000
8080
c180
6300
3600
1c00
1c00
3600
6300
c180
8080
0000
0000
0000
ENDCHAR
STARTCHAR Y
ENCODING 89
SWIDTH 692 0
DWIDTH 9 0
BBX 9 14 0 22
BITMAP
00
82
c6
44
6c
28
38
10
10
10
10
00
00
00
ENDCHAR
STARTCHAR Z
ENCODING 90
SWIDTH 615 0
DWIDTH 8 0
BBX 8 14 0 22
BITMAP
00
fc
0c
18
10
30
20
60
40
c0
fc
00
00
00
ENDCHAR
STARTCHAR [
ENCODING 91
SWIDTH 384 0
DWIDTH 5 0
BBX 5 14 0 22
BITMAP
e0
80
80
80
80
80
80
80
80
80
80
e0
00
00
ENDCHAR
STARTCHAR \
ENCODING 92
SWIDTH 615 0
DWIDTH 8 0
BBX 8 14 0 22
BITMAP
80
c0
40
60
20
30
10
18
08
0c
04
06
02
00
ENDCHAR
STARTCHAR ]
ENCODING 93
SWIDTH 384 0
DWIDTH 5 0
BBX 5 14 0 22
BITMAP
e0
20
20
20
20
20
20
20
20
20
20
e0
00
00
ENDCHAR
STARTCHAR ^
ENCODING 94
SWIDTH 461 0
DWIDTH 6 0
BBX 6 14 0 22
BITMAP
00
20
70
a8
20
20
20
20
20
20
20
00
00
00
ENDCHAR
STARTCHAR _
ENCODING 95
SWIDTH 692 0
DWIDTH 9 0
BBX 9 14 0 22
BITMAP
00
00
00
00
00
20
40
ff
40
20
00
00
00
00
ENDCHAR
STARTCHAR `
ENCODING 96
SWIDTH 230 0
DWIDTH 3 0
BBX 3 14 0 22
BITMAP
00
c0
c0
40
40
00
00
00
00
00
00
00
00
00
ENDCHAR
STARTCHAR a
ENCODING 97
SWIDTH 615 0
DWIDTH 8 0
BBX 8 14 0 22
BITMAP
00
00
00
00
70
88
08
78
88
88
74
00
00
00
ENDCHAR
STARTCHAR b
ENCODING 98
SWIDTH 615 0
DWIDTH 8 0
BBX 8 14 0 22
BITMAP
00
80
80
80
b8
c4
84
84
84
c4
b8
00
00
00
ENDCHAR
STARTCHAR c
ENCODING 99
SWIDTH 615 0
DWIDTH 8 0
BBX 8 14 0 22
BITMAP
00
00
00
00
38
44
80
80
80
44
38
00
00
00
ENDCHAR
STARTCHAR d
ENCODING 100
SWIDTH 615 0
DWIDTH 8 0
BBX 8 14 0 22
BITMAP
00
04
04
04
74
8c
84
84
84
8c
74
00
00
00
ENDCHAR
STARTCHAR e
ENCODING 101
SWIDTH 615 0
DWIDTH 8 0
BBX 8 14 0 22
BITMAP
00
00
00
00
78
84
84
fc
80
84
78
00
00
00
ENDCHAR
STARTCHAR f
ENCODING 102
SWIDTH 461 0
DWIDTH 6 0
BBX 6 14 0 22
BITMAP
00
30
40
40
f0
40
40
40
40
40
40
00
00
00
ENDCHAR
STARTCHAR g
ENCODING 103
SWIDTH 615 0
DWIDTH 8 0
BBX 8 14 0 22
BITMAP
00
00
00
00
7c
88
88
f0
40
78
84
84
78
00
ENDCHAR
STARTCHAR h
ENCODING 104
SWIDTH 538 0
DWIDTH 7 0
BBX 7 14 0 22
BITMAP
00
80
80
80
b0
d8
88
88
88
88
88
00
00
00
ENDCHAR
STARTCHAR i
ENCODING 105
SWIDTH 307 0
DWIDTH 4 0
BBX 4 14 0 22
BITMAP
00
80
80
00
80
80
80
80
80
80
80
00
00
00
ENDCHAR
STARTCHAR j
ENCODING 106
SWIDTH 384 0
DWIDTH 5 0
BBX 5 14 0 22
BITMAP
00
20
20
00
20
20
20
20
20
20
20
60
c0
00
ENDCHAR
STARTCHAR k
ENCODING 107
SWIDTH 538 0
DWIDTH 7 0
BBX 7 14 0 22
BITMAP
00
80
80
88
90
a0
c0
a0
90
88
84
00
00
00
ENDCHAR
STARTCHAR l
ENCODING 108
SWIDTH 307 0
DWIDTH 4 0
BBX 4 14 0 22
BITMAP
00
80
80
80
80
80
80
80
80
80
80
00
00
00
ENDCHAR
STARTCHAR m
ENCODING 109
SWIDTH 692 0
DWIDTH 9 0
BBX 9 14 0 22
BITMAP
00
00
00
00
a4
da
92
92
92
92
92
00
00
00
ENDCHAR
STARTCHAR n
ENCODING 110
SWIDTH 538 0
DWIDTH 7 0
BBX 7 14 0 22
BITMAP
00
00
00
00
b0
c8
88
88
88
88
88
00
00
00
ENDCHAR
STARTCHAR o
ENCODING 111
SWIDTH 615 0
DWIDTH 8 0
BBX 8 14 0 22
BITMAP
00
00
00
30
78
cc
84
84
cc
78
30
00
00
00
ENDCHAR
STARTCHAR p
ENCODING 112
SWIDTH 615 0
DWIDTH 8 0
BBX 8 14 0 22
BITMAP
00
00
00
00
b8
c4
84
84
84
c4
b8
80
80
00
ENDCHAR
STARTCHAR q
ENCODING 113
SWIDTH 615 0
DWIDTH 8 0
BBX 8 14 0 22
BITMAP
00
00
00
00
74
8c
84
84
84
8c
74
04
04
00
ENDCHAR
STARTCHAR r
ENCODING 114
SWIDTH 461 0
DWIDTH 6 0
BBX 6 14 0 22
BITMAP
00
00
00
00
b0
e0
c0
80
80
80
80
00
00
00
ENDCHAR
STARTCHAR s
ENCODING 115
SWIDTH 538 0
DWIDTH 7 0
BBX 7 14 0 22
BITMAP
00
00
00
00
70
88
c0
70
18
88
70
00
00
00
ENDCHAR
STARTCHAR t
ENCODING 116
SWIDTH 384 0
DWIDTH 5 0
BBX 5 14 0 22
BITMAP
00
40
40
40
e0
40
40
40
40
40
60
00
00
00
ENDCHAR
STARTCHAR u
ENCODING 117
SWIDTH 615 0
DWIDTH 8 0
BBX 8 14 0 22
BITMAP
00
00
00
00
84
84
84
84
84
c4
b8
00
00
00
ENDCHAR
STARTCHAR v
ENCODING 118
SWIDTH 692 0
DWIDTH 9 0
BBX 9 14 0 22
BITMAP
00
00
00
00
82
c6
44
6c
28
38
10
00
00
00
ENDCHAR
STARTCHAR w
ENCODING 119
SWIDTH 846 0
DWIDTH 11 0
BBX 11 14 0 22
BITMAP
0000
0000
0000
0000
8880
8880
dd80
5d00
7700
2200
2200
0000
0000
0000
ENDCHAR
STARTCHAR x
ENCODING 120
SWIDTH 692 0
DWIDTH 9 0
BBX 9 14 0 22
BITMAP
00
00
82
c6
6c
38
10
38
6c
c6
82
00
00
00
ENDCHAR
STARTCHAR y
ENCODING 121
SWIDTH 692 0
DWIDTH 9 0
BBX 9 14 0 22
BITMAP
00
00
00
00
82
c6
44
6c
38
38
10
30
e0
00
ENDCHAR
STARTCHAR z
ENCODING 122
SWIDTH 615 0
DWIDTH 8 0
BBX 8 14 0 22
BITMAP
00
00
00
00
fc
0c
18
30
60
c0
fc
00
00
00
ENDCHAR
STARTCHAR {
ENCODING 123
SWIDTH 384 0
DWIDTH 5 0
BBX 5 14 0 22
BITMAP
30
60
60
20
60
c0
c0
60
20
60
60
30
00
00
ENDCHAR
STARTCHAR |
ENCODING 124
SWIDTH 307 0
DWIDTH 4 0
BBX 4 14 0 22
BITMAP
80
80
80
80
80
80
80
80
80
80
80
80
80
00
ENDCHAR
STARTCHAR }
ENCODING 125
SWIDTH 538 0
DWIDTH 7 0
BBX 7 14 0 22
BITMAP
00
00
00
00
00
00
90
b0
68
48
00
00
00
00
ENDCHAR
STARTCHAR ~
ENCODING 126
SWIDTH 461 0
DWIDTH 6 0
BBX 6 14 0 22
BITMAP
c0
60
60
40
60
30
30
60
40
60
60
c0
00
00
ENDCHAR
ENDFONT
